# Blender v2.79 (sub 0) OBJ File: 'stage_basic.blend'
# www.blender.org
mtllib stage_basic.mtl
o Cube
v 10.449021 0.510425 -10.449009
v 10.449009 0.510425 10.449022
v -10.449019 0.510425 10.449009
v -10.449015 0.510425 -10.449018
v 10.750739 -3.935024 -10.750739
v 10.750739 -3.935024 10.750737
v -10.750734 -3.935024 -10.750743
v 10.750744 0.215324 -10.750734
v -10.750739 -3.935024 10.750736
v 10.750732 0.215324 10.750744
v -10.750741 0.215324 10.750734
v -10.750736 0.215324 -10.750739
v 13.782043 -2.880837 -13.782041
v 13.782043 -2.880837 13.782043
v -13.782039 -2.880837 -13.782045
v -13.782044 -2.880837 13.782043
v 13.782043 2.066845 -13.782041
v 13.782043 2.066845 13.782043
v -13.782039 2.066845 -13.782045
v -13.782044 2.066845 13.782043
v 15.155471 1.925998 -15.155468
v 15.155471 1.925998 15.155473
v -15.155466 1.925998 -15.155474
v -15.155473 1.925998 15.155470
v 15.155471 2.853066 -15.155468
v 15.155471 2.853066 15.155473
v -15.155466 2.853066 -15.155474
v -15.155473 2.853066 15.155470
v 17.192326 2.853066 -17.192324
v 17.192326 2.853066 17.192329
v -17.192322 2.853066 -17.192329
v -17.192329 2.853066 17.192326
v 17.192326 3.794578 -17.192324
v 17.192326 3.794578 17.192329
v -17.192322 3.794578 -17.192329
v -17.192329 3.794578 17.192326
v 23.400612 3.269905 -23.400606
v 23.400612 3.269905 23.400614
v -23.400604 3.269905 -23.400616
v -23.400616 3.269905 23.400610
v 23.400612 15.355308 -23.400606
v 23.400612 15.355308 23.400614
v -23.400604 15.355308 -23.400616
v -23.400616 15.355308 23.400610
vn 0.0000 1.0000 0.0000
vn 0.0000 0.7149 -0.6992
vn -0.6992 0.7149 -0.0000
vn 1.0000 0.0000 0.0000
vn -0.0000 -0.0000 1.0000
vn -1.0000 -0.0000 -0.0000
vn 0.0000 0.0000 -1.0000
vn -0.0000 0.7149 0.6992
vn 0.6992 0.7149 0.0000
vn -0.3285 0.9445 0.0000
vn 0.3285 0.9445 0.0000
vn 0.0000 0.9445 -0.3285
vn -0.0000 0.9445 0.3285
vn 0.1020 0.9948 0.0000
vn -0.1020 0.9948 -0.0000
vn 0.0000 0.9948 -0.1020
vn -0.0000 0.9948 0.1020
vn -0.0842 0.9964 -0.0000
vn 0.0000 0.9964 -0.0842
vn -0.0000 0.9964 0.0842
vn 0.0842 0.9964 0.0000
vn 0.0000 -1.0000 -0.0000
usemtl Material
s off
f 1//1 4//1 3//1 2//1
f 4//2 1//2 8//2 12//2
f 3//3 4//3 12//3 11//3
f 5//4 8//4 10//4 6//4
f 6//5 10//5 11//5 9//5
f 9//6 11//6 12//6 7//6
f 8//7 5//7 7//7 12//7
f 2//8 3//8 11//8 10//8
f 1//9 2//9 10//9 8//9
f 5//10 6//10 14//10 13//10
f 9//11 7//11 15//11 16//11
f 6//12 9//12 16//12 14//12
f 7//13 5//13 13//13 15//13
f 14//7 16//7 20//7 18//7
f 13//6 14//6 18//6 17//6
f 16//4 15//4 19//4 20//4
f 15//5 13//5 17//5 19//5
f 17//14 18//14 22//14 21//14
f 20//15 19//15 23//15 24//15
f 19//16 17//16 21//16 23//16
f 18//17 20//17 24//17 22//17
f 24//4 23//4 27//4 28//4
f 23//5 21//5 25//5 27//5
f 22//7 24//7 28//7 26//7
f 21//6 22//6 26//6 25//6
f 27//1 25//1 29//1 31//1
f 26//1 28//1 32//1 30//1
f 25//1 26//1 30//1 29//1
f 28//1 27//1 31//1 32//1
f 30//7 32//7 36//7 34//7
f 29//6 30//6 34//6 33//6
f 32//4 31//4 35//4 36//4
f 31//5 29//5 33//5 35//5
f 36//18 35//18 39//18 40//18
f 35//19 33//19 37//19 39//19
f 34//20 36//20 40//20 38//20
f 33//21 34//21 38//21 37//21
f 37//6 38//6 42//6 41//6
f 40//4 39//4 43//4 44//4
f 39//5 37//5 41//5 43//5
f 38//7 40//7 44//7 42//7
f 41//22 42//22 44//22 43//22
