# Blender v2.79 (sub 0) OBJ File: 'ico_man.blend'
# www.blender.org
mtllib ico_man.mtl
o Cylinder
v 0.860617 0.002545 -0.511222
v 0.860617 1.208180 -0.511222
v 0.845463 0.002545 0.488664
v 0.845463 1.208180 0.488664
v -0.028041 0.002545 0.975482
v -0.028041 1.208180 0.975482
v -0.886389 0.002545 0.462415
v -0.886389 1.208180 0.462415
v -0.871234 0.002545 -0.537470
v -0.871234 1.208180 -0.537470
v 0.002269 0.002545 -1.024289
v 0.002269 1.208180 -1.024289
v 0.017030 1.292292 -0.036615
v 0.306925 1.845077 0.809517
v -0.698106 1.845077 0.500560
v -0.714850 1.845077 -0.550764
v 0.279852 1.845077 -0.891543
v 1.601040 1.785024 -0.051893
v -0.245792 2.739507 0.818313
v -0.877272 2.739507 -0.022387
v -0.272866 2.739507 -0.882747
v 0.584524 2.468313 -0.578659
v 0.601267 2.468313 0.472665
v 0.344531 3.282400 -0.075557
vn 0.9999 0.0000 0.0152
vn 0.4868 0.0000 0.8735
vn -0.5131 0.0000 0.8583
vn -0.9999 0.0000 -0.0152
vn 0.0000 1.0000 0.0000
vn -0.4868 0.0000 -0.8735
vn 0.5131 0.0000 -0.8583
vn 0.0000 -1.0000 0.0000
vn -0.1784 -0.7947 0.5803
vn 0.2676 -0.8461 0.4610
vn -0.6070 -0.7947 0.0097
vn -0.1968 -0.7947 -0.5743
vn 0.2585 -0.8455 -0.4672
vn 0.5508 0.1803 0.8149
vn -0.2886 -0.1876 0.9389
vn -0.9821 -0.1876 0.0156
vn -0.3183 -0.1876 -0.9292
vn 0.5349 0.1555 -0.8305
vn 0.4351 0.2604 0.8619
vn -0.7854 0.1876 0.5899
vn -0.8037 0.1876 -0.5646
vn 0.3932 0.2517 -0.8843
vn 0.5610 0.8277 -0.0089
vn 0.4597 0.5912 0.6627
vn -0.3789 0.8806 0.2846
vn -0.3999 0.8725 -0.2809
vn 0.4287 0.5630 -0.7066
vn 0.9565 0.2914 -0.0152
usemtl Material.001
s off
f 1//1 2//1 4//1 3//1
f 3//2 4//2 6//2 5//2
f 5//3 6//3 8//3 7//3
f 7//4 8//4 10//4 9//4
f 4//5 2//5 12//5 10//5 8//5 6//5
f 9//6 10//6 12//6 11//6
f 11//7 12//7 2//7 1//7
f 1//8 3//8 5//8 7//8 9//8 11//8
f 13//9 14//9 15//9
f 14//10 13//10 18//10
f 13//11 15//11 16//11
f 13//12 16//12 17//12
f 13//13 17//13 18//13
f 14//14 18//14 23//14
f 15//15 14//15 19//15
f 16//16 15//16 20//16
f 17//17 16//17 21//17
f 18//18 17//18 22//18
f 14//19 23//19 19//19
f 15//20 19//20 20//20
f 16//21 20//21 21//21
f 17//22 21//22 22//22
f 18//23 22//23 23//23
f 19//24 23//24 24//24
f 20//25 19//25 24//25
f 21//26 20//26 24//26
f 22//27 21//27 24//27
f 23//28 22//28 24//28
