# Blender v2.79 (sub 0) OBJ File: 'stage_basic.blend'
# www.blender.org
mtllib stage_basic.mtl
o Cube
v 5.223436 2.497387 -5.223431
v 5.223430 2.497387 5.223437
v -5.223435 2.497387 5.223431
v -5.223433 2.497387 -5.223434
v 5.595164 0.001569 -5.595164
v 5.595164 0.001569 5.595163
v -5.595161 0.001569 -5.595166
v 5.595167 2.161596 -5.595161
v -5.595164 0.001569 5.595162
v 5.595160 2.161596 5.595167
v -5.595165 2.161596 5.595161
v -5.595162 2.161596 -5.595164
v 9.084721 -0.060512 -9.084719
v 9.084721 -0.060512 9.084721
v -9.084717 -0.060512 -9.084722
v -9.084721 -0.060512 9.084720
v 9.084721 1.277170 -9.084719
v 9.084721 1.277170 9.084721
v -9.084717 1.277170 -9.084722
v -9.084721 1.277170 9.084720
v 9.990044 1.184328 -9.990042
v 9.990044 1.184328 9.990045
v -9.990040 1.184328 -9.990046
v -9.990045 1.184328 9.990043
v 9.990044 1.795423 -9.990042
v 9.990044 1.795423 9.990045
v -9.990040 1.795423 -9.990046
v -9.990045 1.795423 9.990043
v 11.332680 1.795423 -11.332677
v 11.332680 1.795423 11.332681
v -11.332675 1.795423 -11.332682
v -11.332681 1.795423 11.332679
v 11.332680 2.416041 -11.332677
v 11.332680 2.416041 11.332681
v -11.332675 2.416041 -11.332682
v -11.332681 2.416041 11.332679
v 23.400612 2.416041 -23.400606
v 23.400612 2.416041 23.400614
v -23.400604 2.416041 -23.400616
v -23.400616 2.416041 23.400610
vn 0.0000 1.0000 0.0000
vn 0.0000 0.7421 -0.6703
vn -0.6703 0.7421 -0.0000
vn 1.0000 0.0000 0.0000
vn -0.0000 -0.0000 1.0000
vn -1.0000 -0.0000 -0.0000
vn 0.0000 0.0000 -1.0000
vn -0.0000 0.7421 0.6703
vn 0.6703 0.7421 0.0000
vn 0.0178 0.9998 0.0000
vn -0.0178 0.9998 -0.0000
vn -0.0000 0.9998 0.0178
vn 0.0000 0.9998 -0.0178
vn 0.1020 0.9948 0.0000
vn -0.1020 0.9948 -0.0000
vn 0.0000 0.9948 -0.1020
vn -0.0000 0.9948 0.1020
usemtl Material
s off
f 1//1 4//1 3//1 2//1
f 4//2 1//2 8//2 12//2
f 3//3 4//3 12//3 11//3
f 5//4 8//4 10//4 6//4
f 6//5 10//5 11//5 9//5
f 9//6 11//6 12//6 7//6
f 8//7 5//7 7//7 12//7
f 2//8 3//8 11//8 10//8
f 1//9 2//9 10//9 8//9
f 5//10 6//10 14//10 13//10
f 9//11 7//11 15//11 16//11
f 6//12 9//12 16//12 14//12
f 7//13 5//13 13//13 15//13
f 14//7 16//7 20//7 18//7
f 13//6 14//6 18//6 17//6
f 16//4 15//4 19//4 20//4
f 15//5 13//5 17//5 19//5
f 17//14 18//14 22//14 21//14
f 20//15 19//15 23//15 24//15
f 19//16 17//16 21//16 23//16
f 18//17 20//17 24//17 22//17
f 24//4 23//4 27//4 28//4
f 23//5 21//5 25//5 27//5
f 22//7 24//7 28//7 26//7
f 21//6 22//6 26//6 25//6
f 27//1 25//1 29//1 31//1
f 26//1 28//1 32//1 30//1
f 25//1 26//1 30//1 29//1
f 28//1 27//1 31//1 32//1
f 30//7 32//7 36//7 34//7
f 29//6 30//6 34//6 33//6
f 32//4 31//4 35//4 36//4
f 31//5 29//5 33//5 35//5
f 36//1 35//1 39//1 40//1
f 35//1 33//1 37//1 39//1
f 34//1 36//1 40//1 38//1
f 33//1 34//1 38//1 37//1
